<mxfile host="Electron" modified="2024-12-07T01:55:44.721Z" agent="Mozilla/5.0 (Macintosh; Intel Mac OS X 10_15_7) AppleWebKit/537.36 (KHTML, like Gecko) draw.io/24.0.4 Chrome/120.0.6099.109 Electron/28.1.0 Safari/537.36" etag="NDcWioffGGF2caH6aPvZ" version="24.0.4" type="device">
  <diagram name="Page-1" id="RopC_uglI2K8LbdAZoK3">
    <mxGraphModel dx="1108" dy="769" grid="1" gridSize="10" guides="1" tooltips="1" connect="1" arrows="1" fold="1" page="1" pageScale="1" pageWidth="1100" pageHeight="850" math="0" shadow="0">
      <root>
        <mxCell id="0" />
        <mxCell id="1" parent="0" />
        <mxCell id="vmc1lniQopraq7GzVap2-1" value="Arena" style="shape=umlLifeline;perimeter=lifelinePerimeter;whiteSpace=wrap;html=1;container=1;dropTarget=0;collapsible=0;recursiveResize=0;outlineConnect=0;portConstraint=eastwest;newEdgeStyle={&quot;curved&quot;:0,&quot;rounded&quot;:0};" vertex="1" parent="1">
          <mxGeometry x="110" y="90" width="100" height="615" as="geometry" />
        </mxCell>
        <mxCell id="vmc1lniQopraq7GzVap2-9" value="" style="html=1;points=[[0,0,0,0,5],[0,1,0,0,-5],[1,0,0,0,5],[1,1,0,0,-5]];perimeter=orthogonalPerimeter;outlineConnect=0;targetShapes=umlLifeline;portConstraint=eastwest;newEdgeStyle={&quot;curved&quot;:0,&quot;rounded&quot;:0};" vertex="1" parent="vmc1lniQopraq7GzVap2-1">
          <mxGeometry x="45" y="125" width="10" height="40" as="geometry" />
        </mxCell>
        <mxCell id="vmc1lniQopraq7GzVap2-10" value="&lt;pre style=&quot;font-size: 12px; line-height: 18px; white-space-collapse: preserve;&quot;&gt;&lt;font style=&quot;&quot; face=&quot;Helvetica&quot;&gt;get_radar_results(robot,radar_dir,radar_results)&lt;/font&gt;&lt;/pre&gt;" style="html=1;align=left;spacingLeft=2;endArrow=block;rounded=0;edgeStyle=orthogonalEdgeStyle;curved=0;rounded=0;" edge="1" target="vmc1lniQopraq7GzVap2-9" parent="vmc1lniQopraq7GzVap2-1">
          <mxGeometry relative="1" as="geometry">
            <mxPoint x="50" y="105" as="sourcePoint" />
            <Array as="points">
              <mxPoint x="80" y="135" />
            </Array>
          </mxGeometry>
        </mxCell>
        <mxCell id="vmc1lniQopraq7GzVap2-16" value="" style="html=1;points=[[0,0,0,0,5],[0,1,0,0,-5],[1,0,0,0,5],[1,1,0,0,-5]];perimeter=orthogonalPerimeter;outlineConnect=0;targetShapes=umlLifeline;portConstraint=eastwest;newEdgeStyle={&quot;curved&quot;:0,&quot;rounded&quot;:0};" vertex="1" parent="vmc1lniQopraq7GzVap2-1">
          <mxGeometry x="45" y="320" width="10" height="40" as="geometry" />
        </mxCell>
        <mxCell id="vmc1lniQopraq7GzVap2-17" value="handle_shot(robot, shot_row, shot_col)" style="html=1;align=left;spacingLeft=2;endArrow=block;rounded=0;edgeStyle=orthogonalEdgeStyle;curved=0;rounded=0;" edge="1" target="vmc1lniQopraq7GzVap2-16" parent="vmc1lniQopraq7GzVap2-1">
          <mxGeometry relative="1" as="geometry">
            <mxPoint x="50" y="300" as="sourcePoint" />
            <Array as="points">
              <mxPoint x="80" y="330" />
            </Array>
          </mxGeometry>
        </mxCell>
        <mxCell id="vmc1lniQopraq7GzVap2-25" value="" style="html=1;points=[[0,0,0,0,5],[0,1,0,0,-5],[1,0,0,0,5],[1,1,0,0,-5]];perimeter=orthogonalPerimeter;outlineConnect=0;targetShapes=umlLifeline;portConstraint=eastwest;newEdgeStyle={&quot;curved&quot;:0,&quot;rounded&quot;:0};" vertex="1" parent="vmc1lniQopraq7GzVap2-1">
          <mxGeometry x="45" y="445" width="10" height="40" as="geometry" />
        </mxCell>
        <mxCell id="vmc1lniQopraq7GzVap2-26" value="handle_movement()" style="html=1;align=left;spacingLeft=2;endArrow=block;rounded=0;edgeStyle=orthogonalEdgeStyle;curved=0;rounded=0;" edge="1" target="vmc1lniQopraq7GzVap2-25" parent="vmc1lniQopraq7GzVap2-1">
          <mxGeometry relative="1" as="geometry">
            <mxPoint x="50" y="425" as="sourcePoint" />
            <Array as="points">
              <mxPoint x="80" y="455" />
            </Array>
          </mxGeometry>
        </mxCell>
        <mxCell id="vmc1lniQopraq7GzVap2-2" value="Robot" style="shape=umlLifeline;perimeter=lifelinePerimeter;whiteSpace=wrap;html=1;container=1;dropTarget=0;collapsible=0;recursiveResize=0;outlineConnect=0;portConstraint=eastwest;newEdgeStyle={&quot;curved&quot;:0,&quot;rounded&quot;:0};" vertex="1" parent="1">
          <mxGeometry x="530" y="90" width="100" height="615" as="geometry" />
        </mxCell>
        <mxCell id="vmc1lniQopraq7GzVap2-3" value="" style="html=1;points=[[0,0,0,0,5],[0,1,0,0,-5],[1,0,0,0,5],[1,1,0,0,-5]];perimeter=orthogonalPerimeter;outlineConnect=0;targetShapes=umlLifeline;portConstraint=eastwest;newEdgeStyle={&quot;curved&quot;:0,&quot;rounded&quot;:0};" vertex="1" parent="vmc1lniQopraq7GzVap2-2">
          <mxGeometry x="45" y="65" width="10" height="35" as="geometry" />
        </mxCell>
        <mxCell id="vmc1lniQopraq7GzVap2-6" value="" style="html=1;points=[[0,0,0,0,5],[0,1,0,0,-5],[1,0,0,0,5],[1,1,0,0,-5]];perimeter=orthogonalPerimeter;outlineConnect=0;targetShapes=umlLifeline;portConstraint=eastwest;newEdgeStyle={&quot;curved&quot;:0,&quot;rounded&quot;:0};" vertex="1" parent="vmc1lniQopraq7GzVap2-2">
          <mxGeometry x="45" y="177" width="10" height="33" as="geometry" />
        </mxCell>
        <mxCell id="vmc1lniQopraq7GzVap2-12" value="" style="html=1;points=[[0,0,0,0,5],[0,1,0,0,-5],[1,0,0,0,5],[1,1,0,0,-5]];perimeter=orthogonalPerimeter;outlineConnect=0;targetShapes=umlLifeline;portConstraint=eastwest;newEdgeStyle={&quot;curved&quot;:0,&quot;rounded&quot;:0};" vertex="1" parent="vmc1lniQopraq7GzVap2-2">
          <mxGeometry x="45" y="245" width="10" height="40" as="geometry" />
        </mxCell>
        <mxCell id="vmc1lniQopraq7GzVap2-18" value="" style="html=1;points=[[0,0,0,0,5],[0,1,0,0,-5],[1,0,0,0,5],[1,1,0,0,-5]];perimeter=orthogonalPerimeter;outlineConnect=0;targetShapes=umlLifeline;portConstraint=eastwest;newEdgeStyle={&quot;curved&quot;:0,&quot;rounded&quot;:0};" vertex="1" parent="vmc1lniQopraq7GzVap2-2">
          <mxGeometry x="45" y="375" width="10" height="35" as="geometry" />
        </mxCell>
        <mxCell id="vmc1lniQopraq7GzVap2-27" value="" style="html=1;points=[[0,0,0,0,5],[0,1,0,0,-5],[1,0,0,0,5],[1,1,0,0,-5]];perimeter=orthogonalPerimeter;outlineConnect=0;targetShapes=umlLifeline;portConstraint=eastwest;newEdgeStyle={&quot;curved&quot;:0,&quot;rounded&quot;:0};" vertex="1" parent="vmc1lniQopraq7GzVap2-2">
          <mxGeometry x="45" y="505" width="10" height="40" as="geometry" />
        </mxCell>
        <mxCell id="vmc1lniQopraq7GzVap2-4" value="get_radar_direction(radar_dir)" style="html=1;verticalAlign=bottom;endArrow=block;curved=0;rounded=0;entryX=0;entryY=0;entryDx=0;entryDy=5;" edge="1" target="vmc1lniQopraq7GzVap2-3" parent="1" source="vmc1lniQopraq7GzVap2-1">
          <mxGeometry x="0.0012" relative="1" as="geometry">
            <mxPoint x="245" y="160" as="sourcePoint" />
            <mxPoint as="offset" />
          </mxGeometry>
        </mxCell>
        <mxCell id="vmc1lniQopraq7GzVap2-5" value="return dir(int: 0-8)" style="html=1;verticalAlign=bottom;endArrow=open;dashed=1;endSize=8;curved=0;rounded=0;exitX=0;exitY=1;exitDx=0;exitDy=-5;" edge="1" source="vmc1lniQopraq7GzVap2-3" parent="1" target="vmc1lniQopraq7GzVap2-1">
          <mxGeometry relative="1" as="geometry">
            <mxPoint x="245" y="230" as="targetPoint" />
          </mxGeometry>
        </mxCell>
        <mxCell id="vmc1lniQopraq7GzVap2-7" value="process_radar_results(radar_results)" style="html=1;verticalAlign=bottom;endArrow=block;curved=0;rounded=0;entryX=0;entryY=0;entryDx=0;entryDy=5;" edge="1" target="vmc1lniQopraq7GzVap2-6" parent="1" source="vmc1lniQopraq7GzVap2-1">
          <mxGeometry relative="1" as="geometry">
            <mxPoint x="419.5" y="280" as="sourcePoint" />
          </mxGeometry>
        </mxCell>
        <mxCell id="vmc1lniQopraq7GzVap2-8" value="returns void" style="html=1;verticalAlign=bottom;endArrow=open;dashed=1;endSize=8;curved=0;rounded=0;exitX=0;exitY=1;exitDx=0;exitDy=-5;" edge="1" source="vmc1lniQopraq7GzVap2-6" parent="1" target="vmc1lniQopraq7GzVap2-1">
          <mxGeometry x="0.0004" relative="1" as="geometry">
            <mxPoint x="505" y="350" as="targetPoint" />
            <Array as="points">
              <mxPoint x="360" y="295" />
            </Array>
            <mxPoint as="offset" />
          </mxGeometry>
        </mxCell>
        <mxCell id="vmc1lniQopraq7GzVap2-13" value="get_shot_location(shot_row,shot_col)" style="html=1;verticalAlign=bottom;endArrow=block;curved=0;rounded=0;entryX=0;entryY=0;entryDx=0;entryDy=5;" edge="1" target="vmc1lniQopraq7GzVap2-12" parent="1" source="vmc1lniQopraq7GzVap2-1">
          <mxGeometry relative="1" as="geometry">
            <mxPoint x="505" y="350" as="sourcePoint" />
          </mxGeometry>
        </mxCell>
        <mxCell id="vmc1lniQopraq7GzVap2-14" value="return shot_row and shot_col" style="html=1;verticalAlign=bottom;endArrow=open;dashed=1;endSize=8;curved=0;rounded=0;exitX=0;exitY=1;exitDx=0;exitDy=-5;" edge="1" source="vmc1lniQopraq7GzVap2-12" parent="1" target="vmc1lniQopraq7GzVap2-1">
          <mxGeometry relative="1" as="geometry">
            <mxPoint x="505" y="420" as="targetPoint" />
          </mxGeometry>
        </mxCell>
        <mxCell id="vmc1lniQopraq7GzVap2-19" value="get_movement(move_direction, move_distance)" style="html=1;verticalAlign=bottom;endArrow=block;curved=0;rounded=0;entryX=0;entryY=0;entryDx=0;entryDy=5;" edge="1" target="vmc1lniQopraq7GzVap2-18" parent="1" source="vmc1lniQopraq7GzVap2-1">
          <mxGeometry relative="1" as="geometry">
            <mxPoint x="505" y="510" as="sourcePoint" />
          </mxGeometry>
        </mxCell>
        <mxCell id="vmc1lniQopraq7GzVap2-20" value="return move_direction, move_distance" style="html=1;verticalAlign=bottom;endArrow=open;dashed=1;endSize=8;curved=0;rounded=0;exitX=0;exitY=1;exitDx=0;exitDy=-5;" edge="1" source="vmc1lniQopraq7GzVap2-18" parent="1" target="vmc1lniQopraq7GzVap2-1">
          <mxGeometry relative="1" as="geometry">
            <mxPoint x="505" y="580" as="targetPoint" />
          </mxGeometry>
        </mxCell>
        <mxCell id="vmc1lniQopraq7GzVap2-28" value="move_to(row, col)" style="html=1;verticalAlign=bottom;endArrow=block;curved=0;rounded=0;entryX=0;entryY=0;entryDx=0;entryDy=5;" edge="1" target="vmc1lniQopraq7GzVap2-27" parent="1" source="vmc1lniQopraq7GzVap2-1">
          <mxGeometry relative="1" as="geometry">
            <mxPoint x="505" y="610" as="sourcePoint" />
          </mxGeometry>
        </mxCell>
        <mxCell id="vmc1lniQopraq7GzVap2-29" value="return void" style="html=1;verticalAlign=bottom;endArrow=open;dashed=1;endSize=8;curved=0;rounded=0;exitX=0;exitY=1;exitDx=0;exitDy=-5;" edge="1" source="vmc1lniQopraq7GzVap2-27" parent="1" target="vmc1lniQopraq7GzVap2-1">
          <mxGeometry relative="1" as="geometry">
            <mxPoint x="505" y="680" as="targetPoint" />
          </mxGeometry>
        </mxCell>
      </root>
    </mxGraphModel>
  </diagram>
</mxfile>
